<svg width="18" height="18" viewBox="0 0 18 18" fill="none" xmlns="http://www.w3.org/2000/svg">
<path d="M4 0.5H14C15.933 0.5 17.5 2.067 17.5 4V14C17.5 15.933 15.933 17.5 14 17.5H4C2.067 17.5 0.5 15.933 0.5 14V4C0.5 2.067 2.067 0.5 4 0.5Z" fill="white" stroke="white"/>
<path d="M5.75736 7.24264L10 11.4853L8.58579 12.8995L4.34315 8.65685L5.75736 7.24264Z" fill="url(#paint0_linear_18443_14)"/>
<path d="M12.8284 5.82843L14.2426 7.24264L8.58579 12.8995L7.17157 11.4853L12.8284 5.82843Z" fill="url(#paint1_linear_18443_14)"/>
<defs>
<linearGradient id="paint0_linear_18443_14" x1="12.1213" y1="5.12132" x2="6.46447" y2="10.7782" gradientUnits="userSpaceOnUse">
<stop stop-color="#BC9CFF"/>
<stop offset="1" stop-color="#8BA4F9"/>
</linearGradient>
<linearGradient id="paint1_linear_18443_14" x1="12.1213" y1="5.12132" x2="6.46447" y2="10.7782" gradientUnits="userSpaceOnUse">
<stop stop-color="#BC9CFF"/>
<stop offset="1" stop-color="#8BA4F9"/>
</linearGradient>
</defs>
</svg>
